<svg width="194" height="58" viewBox="0 0 194 58" fill="none" xmlns="http://www.w3.org/2000/svg">
<g filter="url(#filter0_d)">
<rect x="5.5" y="4.5" width="183" height="46" rx="2.5" stroke="#F2F2F2" stroke-width="3"/>
</g>
<path d="M49.6635 26.662C49.6635 26.3073 49.5562 25.9947 49.3415 25.724C49.1362 25.4813 49.0335 25.346 49.0335 25.318C49.0335 25.178 49.2389 25.108 49.6495 25.108C49.7335 25.108 49.8502 25.1127 49.9995 25.122C50.1582 25.1313 50.3122 25.1547 50.4615 25.192C50.6109 25.2293 50.7369 25.2853 50.8395 25.36C50.9515 25.4347 51.0075 25.5373 51.0075 25.668V25.808C51.0075 26.424 50.9655 26.97 50.8815 27.446C50.8442 27.6793 50.8069 27.8753 50.7695 28.034C50.7322 28.1833 50.6762 28.3093 50.6015 28.412C50.5362 28.5053 50.4475 28.5847 50.3355 28.65C50.2329 28.706 50.0882 28.762 49.9015 28.818C49.3042 29.014 48.7815 29.112 48.3335 29.112H48.1235C47.5355 29.112 47.0082 29.0047 46.5415 28.79C46.0842 28.566 45.6922 28.2673 45.3655 27.894C45.0482 27.5113 44.8009 27.0727 44.6235 26.578C44.4555 26.0833 44.3715 25.556 44.3715 24.996V24.758C44.3715 24.17 44.4602 23.6193 44.6375 23.106C44.8149 22.5833 45.0669 22.1307 45.3935 21.748C45.7295 21.356 46.1355 21.048 46.6115 20.824C47.0969 20.6 47.6429 20.488 48.2495 20.488H48.4735C49.2202 20.488 49.7849 20.5907 50.1675 20.796C50.5595 21.0013 50.7555 21.2813 50.7555 21.636C50.7555 22.0093 50.6249 22.196 50.3635 22.196L49.4955 21.818C49.0942 21.6593 48.7069 21.58 48.3335 21.58C47.5589 21.58 46.9429 21.8553 46.4855 22.406C46.0282 22.9567 45.7995 23.736 45.7995 24.744C45.7995 25.1453 45.8415 25.5373 45.9255 25.92C46.0189 26.2933 46.1635 26.6293 46.3595 26.928C46.5555 27.2267 46.8122 27.4693 47.1295 27.656C47.4469 27.8333 47.8389 27.922 48.3055 27.922C48.6882 27.922 49.0102 27.8147 49.2715 27.6C49.5329 27.376 49.6635 27.0633 49.6635 26.662ZM55.8363 24.1L56.7323 23.946C57.1617 23.946 57.3763 24.142 57.3763 24.534C57.3763 24.7673 57.325 24.954 57.2223 25.094C57.129 25.234 57.0123 25.304 56.8723 25.304C56.7977 25.304 56.7137 25.2993 56.6203 25.29C56.527 25.2713 56.415 25.2527 56.2843 25.234C56.1537 25.206 56.037 25.1873 55.9343 25.178C55.841 25.1687 55.757 25.164 55.6823 25.164C55.4303 25.164 55.225 25.178 55.0663 25.206C54.9077 25.234 54.7817 25.2947 54.6883 25.388C54.6043 25.472 54.5437 25.598 54.5063 25.766C54.4783 25.9247 54.4643 26.1393 54.4643 26.41C54.4643 26.9607 54.5343 27.3713 54.6743 27.642C54.8237 27.9033 55.1177 28.034 55.5563 28.034C56.1443 28.034 56.6623 27.992 57.1103 27.908C57.5303 27.824 57.787 27.782 57.8803 27.782C58.1697 27.782 58.3143 27.894 58.3143 28.118V28.258C58.3143 28.6033 58.0997 28.818 57.6703 28.902C57.3717 28.9673 56.625 29 55.4303 29H55.2063C54.2357 29 53.5963 28.9533 53.2883 28.86C52.971 28.776 52.8123 28.6313 52.8123 28.426V28.258L52.9523 27.754C53.0457 27.418 53.0923 26.69 53.0923 25.57L53.1903 22.896C53.1903 22.364 53.1763 22.0373 53.1483 21.916C53.139 21.8133 53.1017 21.678 53.0363 21.51C53.0083 21.426 52.985 21.3467 52.9663 21.272C52.9477 21.1973 52.9383 21.1227 52.9383 21.048C52.9383 20.7027 53.8997 20.53 55.8223 20.53H57.1523C57.8057 20.53 58.1323 20.754 58.1323 21.202C58.1323 21.342 58.0857 21.4493 57.9923 21.524C57.9083 21.5987 57.801 21.636 57.6703 21.636C57.5957 21.636 57.4977 21.6313 57.3763 21.622C57.2643 21.6127 57.1197 21.5987 56.9423 21.58C56.597 21.552 56.2097 21.538 55.7803 21.538C55.5657 21.538 55.3837 21.566 55.2343 21.622C55.085 21.6687 54.959 21.762 54.8563 21.902C54.763 22.0327 54.693 22.21 54.6463 22.434C54.5997 22.658 54.5763 22.9427 54.5763 23.288C54.5763 23.5867 54.665 23.7967 54.8423 23.918C55.0197 24.0393 55.351 24.1 55.8363 24.1ZM65.97 21.258C65.97 21.6313 65.8534 21.818 65.62 21.818C65.5174 21.818 65.3494 21.7853 65.116 21.72C64.8827 21.6547 64.64 21.622 64.388 21.622C63.8467 21.622 63.5294 21.8227 63.436 22.224C63.3614 22.5787 63.324 23.5727 63.324 25.206L63.296 26.382V26.984C63.296 27.2267 63.31 27.4087 63.338 27.53C63.3754 27.642 63.4267 27.7867 63.492 27.964C63.548 28.132 63.576 28.2673 63.576 28.37C63.576 28.5753 63.4874 28.734 63.31 28.846C63.142 28.9487 62.9087 29 62.61 29H62.456C62.2414 29 62.0454 28.9487 61.868 28.846C61.7 28.734 61.616 28.5987 61.616 28.44C61.616 28.2627 61.6394 28.118 61.686 28.006L61.784 27.768C61.8214 27.7027 61.868 27.572 61.924 27.376C61.9707 27.1893 61.994 26.8673 61.994 26.41V26.242C62.0034 26.1767 62.008 26.1207 62.008 26.074C62.008 26.018 62.008 25.9573 62.008 25.892V25.556L62.036 24.198C62.036 23.078 61.9987 22.3827 61.924 22.112C61.84 21.7947 61.5927 21.636 61.182 21.636C60.9487 21.636 60.6687 21.692 60.342 21.804C60.006 21.9067 59.8054 21.958 59.74 21.958C59.544 21.958 59.446 21.7527 59.446 21.342C59.446 20.9313 59.6234 20.7027 59.978 20.656C60.454 20.572 61.6067 20.53 63.436 20.53H65.102C65.4194 20.53 65.6434 20.5907 65.774 20.712C65.9047 20.8333 65.97 21.0153 65.97 21.258ZM73.1068 21.258C73.1068 21.6313 72.9901 21.818 72.7568 21.818C72.6541 21.818 72.4861 21.7853 72.2528 21.72C72.0194 21.6547 71.7768 21.622 71.5248 21.622C70.9834 21.622 70.6661 21.8227 70.5728 22.224C70.4981 22.5787 70.4608 23.5727 70.4608 25.206L70.4328 26.382V26.984C70.4328 27.2267 70.4468 27.4087 70.4748 27.53C70.5121 27.642 70.5634 27.7867 70.6288 27.964C70.6848 28.132 70.7128 28.2673 70.7128 28.37C70.7128 28.5753 70.6241 28.734 70.4468 28.846C70.2788 28.9487 70.0454 29 69.7468 29H69.5928C69.3781 29 69.1821 28.9487 69.0048 28.846C68.8368 28.734 68.7528 28.5987 68.7528 28.44C68.7528 28.2627 68.7761 28.118 68.8228 28.006L68.9208 27.768C68.9581 27.7027 69.0048 27.572 69.0608 27.376C69.1074 27.1893 69.1308 26.8673 69.1308 26.41V26.242C69.1401 26.1767 69.1448 26.1207 69.1448 26.074C69.1448 26.018 69.1448 25.9573 69.1448 25.892V25.556L69.1728 24.198C69.1728 23.078 69.1354 22.3827 69.0608 22.112C68.9768 21.7947 68.7294 21.636 68.3188 21.636C68.0854 21.636 67.8054 21.692 67.4788 21.804C67.1428 21.9067 66.9421 21.958 66.8768 21.958C66.6808 21.958 66.5828 21.7527 66.5828 21.342C66.5828 20.9313 66.7601 20.7027 67.1148 20.656C67.5908 20.572 68.7434 20.53 70.5728 20.53H72.2388C72.5561 20.53 72.7801 20.5907 72.9108 20.712C73.0414 20.8333 73.1068 21.0153 73.1068 21.258ZM75.5955 28.986H75.2455C75.1801 28.986 75.0868 28.9813 74.9655 28.972C74.8535 28.9533 74.7368 28.9253 74.6155 28.888C74.5035 28.8507 74.4055 28.7993 74.3215 28.734C74.2375 28.6687 74.1955 28.5893 74.1955 28.496C74.1955 28.3747 74.2608 28.1833 74.3915 27.922C74.5408 27.642 74.6341 27.348 74.6715 27.04C74.6901 26.872 74.7041 26.592 74.7135 26.2C74.7321 25.808 74.7415 25.2947 74.7415 24.66C74.7415 24.0253 74.7368 23.5167 74.7275 23.134C74.7181 22.7513 74.7041 22.49 74.6855 22.35C74.6481 22.07 74.5548 21.8227 74.4055 21.608C74.2655 21.3933 74.1955 21.216 74.1955 21.076C74.1955 20.964 74.2421 20.8753 74.3355 20.81C74.4381 20.7447 74.5548 20.6933 74.6855 20.656C74.8161 20.6187 74.9468 20.5953 75.0775 20.586C75.2175 20.5673 75.3248 20.558 75.3995 20.558H75.6375C75.9268 20.558 76.1508 20.6093 76.3095 20.712C76.4495 20.824 76.5195 20.936 76.5195 21.048V21.132C76.5195 21.188 76.4681 21.328 76.3655 21.552C76.2535 21.748 76.1835 22.0187 76.1555 22.364C76.1368 22.532 76.1181 22.84 76.0995 23.288C76.0901 23.7267 76.0855 24.31 76.0855 25.038C76.0855 25.766 76.0855 26.3307 76.0855 26.732C76.0948 27.1333 76.1041 27.3713 76.1135 27.446C76.1415 27.6047 76.2115 27.7913 76.3235 28.006C76.4355 28.2113 76.4915 28.384 76.4915 28.524C76.4915 28.6547 76.4028 28.7667 76.2255 28.86C76.0481 28.944 75.8381 28.986 75.5955 28.986ZM83.9534 21.37C83.9534 20.9967 84.1914 20.81 84.6674 20.81C84.882 20.81 85.0594 20.8847 85.1994 21.034C85.3487 21.174 85.4234 21.3373 85.4234 21.524C85.4234 21.7013 85.372 21.93 85.2694 22.21C85.2227 22.35 85.1854 22.4947 85.1574 22.644C85.1294 22.7933 85.106 22.9473 85.0874 23.106C85.0687 23.2647 85.0547 23.4887 85.0454 23.778C85.036 24.058 85.0314 24.4033 85.0314 24.814V25.066C85.022 25.15 85.0174 25.3087 85.0174 25.542C85.0174 25.766 85.0174 26.0647 85.0174 26.438C85.0174 27.1753 84.9894 27.7913 84.9334 28.286C84.896 28.594 84.7374 28.748 84.4574 28.748C84.1587 28.748 83.8087 28.4913 83.4074 27.978C83.2954 27.838 82.7214 26.9607 81.6854 25.346C80.6494 23.75 80.038 22.952 79.8514 22.952C79.7207 22.952 79.6554 24.128 79.6554 26.48C79.6554 26.6107 79.66 26.7507 79.6694 26.9C79.6787 27.0493 79.6927 27.2127 79.7114 27.39L79.7534 27.964C79.7534 28.2067 79.66 28.412 79.4734 28.58C79.2867 28.748 79.0627 28.832 78.8014 28.832C78.4467 28.832 78.2694 28.706 78.2694 28.454C78.2694 28.286 78.3207 28.0853 78.4234 27.852C78.582 27.432 78.6614 26.4613 78.6614 24.94V24.674L78.6894 24.156V22.868C78.6894 22.3547 78.6474 21.93 78.5634 21.594C78.5354 21.51 78.512 21.44 78.4934 21.384C78.484 21.3187 78.47 21.2673 78.4514 21.23C78.442 21.1833 78.4327 21.1413 78.4234 21.104C78.4234 20.908 78.568 20.81 78.8574 20.81C79.436 20.81 79.9774 21.1133 80.4814 21.72C81.004 22.3173 81.676 23.2413 82.4974 24.492C83.328 25.7427 83.7807 26.368 83.8554 26.368C83.9954 26.368 84.0654 25.2387 84.0654 22.98C84.0654 22.6813 84.0607 22.4293 84.0514 22.224C84.042 22.0093 84.028 21.8413 84.0094 21.72C83.9907 21.6267 83.9767 21.538 83.9674 21.454C83.958 21.426 83.9534 21.398 83.9534 21.37ZM92.101 26.662C92.101 26.3073 91.9937 25.9947 91.779 25.724C91.5737 25.4813 91.471 25.346 91.471 25.318C91.471 25.178 91.6764 25.108 92.087 25.108C92.171 25.108 92.2877 25.1127 92.437 25.122C92.5957 25.1313 92.7497 25.1547 92.899 25.192C93.0484 25.2293 93.1744 25.2853 93.277 25.36C93.389 25.4347 93.445 25.5373 93.445 25.668V25.808C93.445 26.424 93.403 26.97 93.319 27.446C93.2817 27.6793 93.2444 27.8753 93.207 28.034C93.1697 28.1833 93.1137 28.3093 93.039 28.412C92.9737 28.5053 92.885 28.5847 92.773 28.65C92.6704 28.706 92.5257 28.762 92.339 28.818C91.7417 29.014 91.219 29.112 90.771 29.112H90.561C89.973 29.112 89.4457 29.0047 88.979 28.79C88.5217 28.566 88.1297 28.2673 87.803 27.894C87.4857 27.5113 87.2384 27.0727 87.061 26.578C86.893 26.0833 86.809 25.556 86.809 24.996V24.758C86.809 24.17 86.8977 23.6193 87.075 23.106C87.2524 22.5833 87.5044 22.1307 87.831 21.748C88.167 21.356 88.573 21.048 89.049 20.824C89.5344 20.6 90.0804 20.488 90.687 20.488H90.911C91.6577 20.488 92.2224 20.5907 92.605 20.796C92.997 21.0013 93.193 21.2813 93.193 21.636C93.193 22.0093 93.0624 22.196 92.801 22.196L91.933 21.818C91.5317 21.6593 91.1444 21.58 90.771 21.58C89.9964 21.58 89.3804 21.8553 88.923 22.406C88.4657 22.9567 88.237 23.736 88.237 24.744C88.237 25.1453 88.279 25.5373 88.363 25.92C88.4564 26.2933 88.601 26.6293 88.797 26.928C88.993 27.2267 89.2497 27.4693 89.567 27.656C89.8844 27.8333 90.2764 27.922 90.743 27.922C91.1257 27.922 91.4477 27.8147 91.709 27.6C91.9704 27.376 92.101 27.0633 92.101 26.662ZM101.231 29.084C101.044 29.084 100.843 29.07 100.629 29.042C100.414 29.014 100.204 28.9813 99.9988 28.944C99.8028 28.8973 99.6208 28.8507 99.4528 28.804C99.2848 28.748 99.1541 28.692 99.0608 28.636C98.8835 28.5333 98.7435 28.384 98.6408 28.188C98.5381 27.992 98.4868 27.8007 98.4868 27.614C98.4868 27.4367 98.5288 27.3013 98.6128 27.208C98.6968 27.1053 98.7901 27.054 98.8928 27.054C98.9768 27.054 99.1635 27.1707 99.4528 27.404C99.7235 27.6373 99.9941 27.81 100.265 27.922C100.545 28.034 100.89 28.09 101.301 28.09C101.721 28.09 102.057 27.9827 102.309 27.768C102.561 27.5533 102.687 27.2453 102.687 26.844C102.687 26.648 102.649 26.48 102.575 26.34C102.509 26.2 102.397 26.0693 102.239 25.948C102.08 25.8267 101.875 25.7007 101.623 25.57C101.38 25.4393 101.077 25.29 100.713 25.122C100.423 24.982 100.153 24.842 99.9008 24.702C99.6488 24.5527 99.4248 24.3847 99.2288 24.198C99.0421 24.002 98.8928 23.778 98.7808 23.526C98.6781 23.2647 98.6268 22.9567 98.6268 22.602C98.6268 21.9673 98.8788 21.454 99.3828 21.062C99.8868 20.6607 100.619 20.46 101.581 20.46C102.169 20.46 102.659 20.544 103.051 20.712C103.237 20.796 103.391 20.936 103.513 21.132C103.634 21.3187 103.695 21.4913 103.695 21.65C103.695 22.042 103.564 22.238 103.303 22.238C103.237 22.238 102.995 22.098 102.575 21.818C102.145 21.538 101.721 21.398 101.301 21.398C100.881 21.398 100.54 21.496 100.279 21.692C100.017 21.888 99.8868 22.1633 99.8868 22.518C99.8868 22.6953 99.9148 22.8493 99.9708 22.98C100.036 23.1107 100.139 23.2367 100.279 23.358C100.428 23.4793 100.624 23.6053 100.867 23.736C101.119 23.8667 101.431 24.016 101.805 24.184C102.103 24.3147 102.383 24.4547 102.645 24.604C102.915 24.7533 103.153 24.926 103.359 25.122C103.564 25.318 103.727 25.5513 103.849 25.822C103.97 26.0833 104.031 26.396 104.031 26.76C104.031 26.928 104.012 27.0913 103.975 27.25C103.937 27.3993 103.886 27.5487 103.821 27.698C103.587 28.174 103.228 28.524 102.743 28.748C102.267 28.972 101.777 29.084 101.273 29.084H101.231ZM111.566 21.258C111.566 21.6313 111.449 21.818 111.216 21.818C111.113 21.818 110.945 21.7853 110.712 21.72C110.478 21.6547 110.236 21.622 109.984 21.622C109.442 21.622 109.125 21.8227 109.032 22.224C108.957 22.5787 108.92 23.5727 108.92 25.206L108.892 26.382V26.984C108.892 27.2267 108.906 27.4087 108.934 27.53C108.971 27.642 109.022 27.7867 109.088 27.964C109.144 28.132 109.172 28.2673 109.172 28.37C109.172 28.5753 109.083 28.734 108.906 28.846C108.738 28.9487 108.504 29 108.206 29H108.052C107.837 29 107.641 28.9487 107.464 28.846C107.296 28.734 107.212 28.5987 107.212 28.44C107.212 28.2627 107.235 28.118 107.282 28.006L107.38 27.768C107.417 27.7027 107.464 27.572 107.52 27.376C107.566 27.1893 107.59 26.8673 107.59 26.41V26.242C107.599 26.1767 107.604 26.1207 107.604 26.074C107.604 26.018 107.604 25.9573 107.604 25.892V25.556L107.632 24.198C107.632 23.078 107.594 22.3827 107.52 22.112C107.436 21.7947 107.188 21.636 106.778 21.636C106.544 21.636 106.264 21.692 105.938 21.804C105.602 21.9067 105.401 21.958 105.336 21.958C105.14 21.958 105.042 21.7527 105.042 21.342C105.042 20.9313 105.219 20.7027 105.574 20.656C106.05 20.572 107.202 20.53 109.032 20.53H110.698C111.015 20.53 111.239 20.5907 111.37 20.712C111.5 20.8333 111.566 21.0153 111.566 21.258ZM119.248 27.978V28.09C119.248 28.3887 119.155 28.594 118.968 28.706C118.782 28.8087 118.558 28.86 118.296 28.86C118.175 28.86 118.082 28.8553 118.016 28.846C117.951 28.8273 117.895 28.7853 117.848 28.72C117.802 28.6547 117.755 28.552 117.708 28.412C117.671 28.272 117.62 28.076 117.554 27.824C117.489 27.5533 117.419 27.3293 117.344 27.152C117.27 26.9747 117.176 26.8347 117.064 26.732C116.962 26.62 116.826 26.5407 116.658 26.494C116.5 26.4473 116.29 26.424 116.028 26.424C115.534 26.424 115.151 26.4427 114.88 26.48C114.61 26.5173 114.404 26.5873 114.264 26.69C114.124 26.7833 114.022 26.9187 113.956 27.096C113.891 27.264 113.816 27.4833 113.732 27.754C113.667 27.95 113.62 28.146 113.592 28.342C113.574 28.5287 113.536 28.664 113.48 28.748C113.434 28.8227 113.303 28.86 113.088 28.86C112.874 28.86 112.701 28.7713 112.57 28.594C112.449 28.4167 112.388 28.2207 112.388 28.006C112.388 27.782 112.463 27.5673 112.612 27.362C112.687 27.2593 112.748 27.1613 112.794 27.068C112.85 26.9653 112.897 26.872 112.934 26.788C112.972 26.704 113.06 26.452 113.2 26.032C113.34 25.6027 113.546 25.0053 113.816 24.24C114.078 23.4747 114.292 22.8587 114.46 22.392C114.638 21.916 114.773 21.58 114.866 21.384C115.044 21.0107 115.198 20.7727 115.328 20.67C115.459 20.5673 115.622 20.516 115.818 20.516C116.014 20.516 116.192 20.586 116.35 20.726C116.518 20.866 116.696 21.1367 116.882 21.538C116.882 21.538 117.508 23.302 118.758 26.83C118.824 27.0167 118.922 27.2173 119.052 27.432C119.183 27.6467 119.248 27.8287 119.248 27.978ZM115.902 25.57C116.518 25.57 116.826 25.514 116.826 25.402V25.36C116.826 25.3413 116.817 25.304 116.798 25.248C116.789 25.192 116.775 25.1127 116.756 25.01L116.658 24.66C116.658 24.6507 116.649 24.618 116.63 24.562C116.621 24.5433 116.565 24.3007 116.462 23.834C116.35 23.386 116.21 22.9613 116.042 22.56C115.874 22.168 115.776 21.972 115.748 21.972C115.72 21.972 115.65 22.1167 115.538 22.406C114.866 24.086 114.53 25.08 114.53 25.388V25.43C114.53 25.5233 114.736 25.57 115.146 25.57H115.902ZM121.071 22.518C121.061 22.462 121.057 22.392 121.057 22.308C121.057 22.2147 121.057 22.112 121.057 22C121.057 21.748 121.038 21.524 121.001 21.328C120.963 21.132 120.945 20.992 120.945 20.908C120.945 20.7493 121.099 20.642 121.407 20.586C121.733 20.53 122.284 20.502 123.059 20.502H123.437C124.977 20.502 125.933 20.9687 126.307 21.902C126.363 22.0233 126.4 22.1587 126.419 22.308C126.447 22.4573 126.461 22.6207 126.461 22.798C126.461 23.162 126.391 23.4887 126.251 23.778C126.111 24.058 125.901 24.3473 125.621 24.646C125.331 24.9633 125.187 25.2107 125.187 25.388C125.187 25.4907 125.238 25.6587 125.341 25.892C125.443 26.116 125.565 26.354 125.705 26.606C125.845 26.858 125.985 27.096 126.125 27.32C126.274 27.544 126.391 27.698 126.475 27.782C126.801 28.1273 126.965 28.3607 126.965 28.482V28.594C126.965 28.7807 126.815 28.874 126.517 28.874H126.377C126.097 28.874 125.845 28.7573 125.621 28.524C125.49 28.3933 125.21 27.964 124.781 27.236C124.566 26.872 124.389 26.5873 124.249 26.382C124.118 26.1673 124.001 26.0087 123.899 25.906C123.805 25.794 123.707 25.724 123.605 25.696C123.511 25.668 123.39 25.654 123.241 25.654C122.942 25.654 122.732 25.7753 122.611 26.018C122.499 26.2513 122.443 26.5267 122.443 26.844C122.443 27.152 122.471 27.4413 122.527 27.712C122.583 27.9733 122.611 28.1273 122.611 28.174C122.611 28.4167 122.513 28.594 122.317 28.706C122.13 28.8087 121.901 28.86 121.631 28.86C121.351 28.86 121.136 28.804 120.987 28.692C120.837 28.58 120.763 28.3887 120.763 28.118C120.763 28.006 120.809 27.852 120.903 27.656C120.996 27.46 121.057 27.264 121.085 27.068C121.094 26.9747 121.099 26.8253 121.099 26.62C121.108 26.4147 121.113 26.1487 121.113 25.822V24.114L121.099 23.932V23.582L121.071 22.518ZM122.919 24.688H123.073C123.707 24.688 124.211 24.5433 124.585 24.254C124.958 23.9553 125.145 23.5587 125.145 23.064V22.77C125.145 22.3313 125 21.986 124.711 21.734C124.431 21.4727 124.039 21.342 123.535 21.342H123.325L123.073 21.37C122.895 21.37 122.737 21.398 122.597 21.454C122.466 21.51 122.401 21.6453 122.401 21.86L122.373 22.238V22.686L122.359 22.854V24.044C122.359 24.3147 122.391 24.492 122.457 24.576C122.522 24.6507 122.676 24.688 122.919 24.688ZM134.603 21.258C134.603 21.6313 134.486 21.818 134.253 21.818C134.15 21.818 133.982 21.7853 133.749 21.72C133.516 21.6547 133.273 21.622 133.021 21.622C132.48 21.622 132.162 21.8227 132.069 22.224C131.994 22.5787 131.957 23.5727 131.957 25.206L131.929 26.382V26.984C131.929 27.2267 131.943 27.4087 131.971 27.53C132.008 27.642 132.06 27.7867 132.125 27.964C132.181 28.132 132.209 28.2673 132.209 28.37C132.209 28.5753 132.12 28.734 131.943 28.846C131.775 28.9487 131.542 29 131.243 29H131.089C130.874 29 130.678 28.9487 130.501 28.846C130.333 28.734 130.249 28.5987 130.249 28.44C130.249 28.2627 130.272 28.118 130.319 28.006L130.417 27.768C130.454 27.7027 130.501 27.572 130.557 27.376C130.604 27.1893 130.627 26.8673 130.627 26.41V26.242C130.636 26.1767 130.641 26.1207 130.641 26.074C130.641 26.018 130.641 25.9573 130.641 25.892V25.556L130.669 24.198C130.669 23.078 130.632 22.3827 130.557 22.112C130.473 21.7947 130.226 21.636 129.815 21.636C129.582 21.636 129.302 21.692 128.975 21.804C128.639 21.9067 128.438 21.958 128.373 21.958C128.177 21.958 128.079 21.7527 128.079 21.342C128.079 20.9313 128.256 20.7027 128.611 20.656C129.087 20.572 130.24 20.53 132.069 20.53H133.735C134.052 20.53 134.276 20.5907 134.407 20.712C134.538 20.8333 134.603 21.0153 134.603 21.258ZM138.702 24.1L139.598 23.946C140.027 23.946 140.242 24.142 140.242 24.534C140.242 24.7673 140.19 24.954 140.088 25.094C139.994 25.234 139.878 25.304 139.738 25.304C139.663 25.304 139.579 25.2993 139.486 25.29C139.392 25.2713 139.28 25.2527 139.15 25.234C139.019 25.206 138.902 25.1873 138.8 25.178C138.706 25.1687 138.622 25.164 138.548 25.164C138.296 25.164 138.09 25.178 137.932 25.206C137.773 25.234 137.647 25.2947 137.554 25.388C137.47 25.472 137.409 25.598 137.372 25.766C137.344 25.9247 137.33 26.1393 137.33 26.41C137.33 26.9607 137.4 27.3713 137.54 27.642C137.689 27.9033 137.983 28.034 138.422 28.034C139.01 28.034 139.528 27.992 139.976 27.908C140.396 27.824 140.652 27.782 140.746 27.782C141.035 27.782 141.18 27.894 141.18 28.118V28.258C141.18 28.6033 140.965 28.818 140.536 28.902C140.237 28.9673 139.49 29 138.296 29H138.072C137.101 29 136.462 28.9533 136.154 28.86C135.836 28.776 135.678 28.6313 135.678 28.426V28.258L135.818 27.754C135.911 27.418 135.958 26.69 135.958 25.57L136.056 22.896C136.056 22.364 136.042 22.0373 136.014 21.916C136.004 21.8133 135.967 21.678 135.902 21.51C135.874 21.426 135.85 21.3467 135.832 21.272C135.813 21.1973 135.804 21.1227 135.804 21.048C135.804 20.7027 136.765 20.53 138.688 20.53H140.018C140.671 20.53 140.998 20.754 140.998 21.202C140.998 21.342 140.951 21.4493 140.858 21.524C140.774 21.5987 140.666 21.636 140.536 21.636C140.461 21.636 140.363 21.6313 140.242 21.622C140.13 21.6127 139.985 21.5987 139.808 21.58C139.462 21.552 139.075 21.538 138.646 21.538C138.431 21.538 138.249 21.566 138.1 21.622C137.95 21.6687 137.824 21.762 137.722 21.902C137.628 22.0327 137.558 22.21 137.512 22.434C137.465 22.658 137.442 22.9427 137.442 23.288C137.442 23.5867 137.53 23.7967 137.708 23.918C137.885 24.0393 138.216 24.1 138.702 24.1ZM143.151 22.798V22.658C143.142 22.6113 143.137 22.5507 143.137 22.476C143.137 22.4013 143.137 22.308 143.137 22.196C143.137 21.9533 143.086 21.7153 142.983 21.482C142.881 21.2207 142.829 21.0807 142.829 21.062V20.964C142.829 20.8053 142.955 20.7073 143.207 20.67C143.711 20.586 144.369 20.544 145.181 20.544H145.615C146.885 20.544 147.86 20.9033 148.541 21.622C149.232 22.3313 149.577 23.316 149.577 24.576L149.563 24.73C149.563 25.066 149.531 25.4347 149.465 25.836C149.409 26.228 149.288 26.6107 149.101 26.984C148.915 27.3573 148.649 27.7027 148.303 28.02C147.967 28.3373 147.524 28.5893 146.973 28.776C146.525 28.9253 145.933 29 145.195 29H144.915C144.551 29 144.229 28.9953 143.949 28.986C143.669 28.9673 143.427 28.9393 143.221 28.902C142.979 28.8553 142.857 28.7573 142.857 28.608C142.857 28.5053 142.904 28.356 142.997 28.16C143.091 27.936 143.142 27.7073 143.151 27.474C143.17 27.3527 143.179 27.0867 143.179 26.676C143.179 26.2653 143.179 25.71 143.179 25.01V23.89L143.151 22.798ZM148.093 24.94V24.52C148.093 24.128 148.047 23.7453 147.953 23.372C147.86 22.9893 147.711 22.6533 147.505 22.364C147.3 22.0653 147.034 21.8273 146.707 21.65C146.39 21.4633 146.007 21.37 145.559 21.37H145.293C144.799 21.37 144.523 21.4727 144.467 21.678C144.439 21.79 144.425 22.3687 144.425 23.414V25.514L144.411 25.892V26.83L144.425 26.928V27.194L144.439 27.572C144.439 27.768 144.5 27.908 144.621 27.992C144.752 28.076 145.013 28.118 145.405 28.118L145.489 28.104C145.956 28.104 146.353 28.02 146.679 27.852C147.015 27.6747 147.286 27.4413 147.491 27.152C147.706 26.8533 147.86 26.5127 147.953 26.13C148.047 25.7473 148.093 25.3507 148.093 24.94Z" fill="white"/>
<defs>
<filter id="filter0_d" x="0" y="1" width="194" height="57" filterUnits="userSpaceOnUse" color-interpolation-filters="sRGB">
<feFlood flood-opacity="0" result="BackgroundImageFix"/>
<feColorMatrix in="SourceAlpha" type="matrix" values="0 0 0 0 0 0 0 0 0 0 0 0 0 0 0 0 0 0 127 0"/>
<feOffset dy="2"/>
<feGaussianBlur stdDeviation="2"/>
<feColorMatrix type="matrix" values="0 0 0 0 0 0 0 0 0 0 0 0 0 0 0 0 0 0 0.25 0"/>
<feBlend mode="normal" in2="BackgroundImageFix" result="effect1_dropShadow"/>
<feBlend mode="normal" in="SourceGraphic" in2="effect1_dropShadow" result="shape"/>
</filter>
</defs>
</svg>
